<svg width="160" height="32" viewBox="0 0 160 32" fill="none" xmlns="http://www.w3.org/2000/svg">
<path d="M43.875 27.0833C43.875 29.3844 42.0094 31.25 39.7083 31.25H4.29167C1.99062 31.25 0.125 29.3844 0.125 27.0833V4.16667C0.125 1.86562 1.99062 0 4.29167 0H39.7083C42.0094 0 43.875 1.86562 43.875 4.16667V27.0833Z" fill="#1565C0"/>
<path d="M12.819 10.4166L10.0836 18.5749C10.0836 18.5749 9.3888 15.1239 9.32005 14.6905C7.76276 11.1374 5.46484 11.3353 5.46484 11.3353L8.17318 21.8749V21.8728H11.4659L16.019 10.4166H12.819ZM15.4263 21.8749H18.4169L20.2253 10.4166H17.1971L15.4263 21.8749ZM36.5919 10.4166H33.445L28.5388 21.8749H31.5096L32.1221 20.2384H35.868L36.1867 21.8749H38.9086L36.5919 10.4166ZM32.9513 18.0499L34.5794 13.7197L35.4315 18.0499H32.9513ZM24.468 13.7562C24.468 13.1249 24.9867 12.6551 26.4742 12.6551C27.4409 12.6551 28.5482 13.3572 28.5482 13.3572L29.0336 10.952C29.0336 10.952 27.619 10.4155 26.2305 10.4155C23.0857 10.4155 21.4638 11.9197 21.4638 13.8239C21.4638 17.2676 25.6086 16.7957 25.6086 18.5645C25.6086 18.8676 25.368 19.5687 23.6419 19.5687C21.9107 19.5687 20.768 18.9343 20.768 18.9343L20.2523 21.2426C20.2523 21.2426 21.3596 21.8739 23.4992 21.8739C25.644 21.8739 28.619 20.2697 28.619 17.9655C28.619 15.1937 24.468 14.9937 24.468 13.7562Z" fill="white"/>
<path d="M9.72292 16.6095L8.71667 11.6637C8.71667 11.6637 8.26146 10.5918 7.07813 10.5918C5.89479 10.5918 2.45312 10.5918 2.45312 10.5918C2.45312 10.5918 8.35 12.3335 9.72292 16.6095Z" fill="#FFC107"/>
<path d="M101.688 27.0833C101.688 29.3844 99.8219 31.25 97.5208 31.25H62.1042C59.8031 31.25 57.9375 29.3844 57.9375 27.0833V4.16667C57.9375 1.86562 59.8031 0 62.1042 0H97.5208C99.8219 0 101.688 1.86562 101.688 4.16667V27.0833Z" fill="#1976D2"/>
<path d="M77.9922 11.459L75.7911 16.3371L73.6005 11.459H70.7932V18.4652L67.6651 11.459H65.2964L62.1016 18.7309H63.9922L64.6911 17.1079H68.2661L68.9766 18.7309H72.5859V13.3298L74.9807 18.7309H76.6089L79.0578 13.4236V18.7309H80.8516V11.459H77.9922ZM65.3672 15.5371L66.4359 12.9954L67.5464 15.5371H65.3672ZM94.2714 15.0142L97.5182 11.4777H95.2089L93.1318 13.7319L91.1224 11.459H83.9766V18.7319H90.888L93.0672 16.3246L95.1922 18.7507H97.4943L94.2714 15.0142ZM89.9432 17.2048H85.7651V15.7663H89.763V14.3882H85.7651V13.0257L90.1755 13.0382L91.9391 15.0142L89.9432 17.2048Z" fill="white"/>
<path d="M159.5 27.0833C159.5 29.3844 157.634 31.25 155.333 31.25H119.917C117.616 31.25 115.75 29.3844 115.75 27.0833V4.16667C115.75 1.86562 117.616 0 119.917 0H155.333C157.634 0 159.5 1.86562 159.5 4.16667V27.0833Z" fill="#3F51B5"/>
<path d="M143.878 5.20898C141.115 5.20898 138.465 6.30645 136.512 8.25996C134.558 10.2135 133.461 12.863 133.461 15.6257C133.461 18.3883 134.558 21.0378 136.512 22.9913C138.465 24.9449 141.115 26.0423 143.878 26.0423C146.64 26.0423 149.29 24.9449 151.243 22.9913C153.197 21.0378 154.294 18.3883 154.294 15.6257C154.294 12.863 153.197 10.2135 151.243 8.25996C149.29 6.30645 146.64 5.20898 143.878 5.20898Z" fill="#FFC107"/>
<path d="M135.554 21.8757C135.07 21.2329 134.655 20.5382 134.329 19.7923H139.876C140.165 19.1298 140.392 18.434 140.539 17.709H133.666C133.529 17.0361 133.456 16.3402 133.456 15.6257H140.747C140.747 14.9111 140.674 14.2152 140.538 13.5423H133.665C133.813 12.8173 134.039 12.1215 134.329 11.459H139.876C139.549 10.7132 139.135 10.0184 138.651 9.37565H135.554C136.009 8.77148 136.522 8.2069 137.096 7.71419C135.276 6.15586 132.915 5.20898 130.331 5.20898C124.578 5.20898 119.914 9.87253 119.914 15.6257C119.914 21.3788 124.578 26.0423 130.331 26.0423C133.736 26.0423 136.749 24.4017 138.649 21.8757H135.554Z" fill="#FF3D00"/>
</svg>