<svg width="514" height="121" viewBox="0 0 514 121" fill="none" xmlns="http://www.w3.org/2000/svg">
<path d="M51.1009 108H54.6165V103.483H57.0028C60.3338 103.483 62.4148 101.509 62.4148 98.4901C62.4148 95.5 60.3764 93.4545 57.1094 93.4545H51.1009V108ZM54.6165 100.713V96.2884H56.3494C57.9261 96.2884 58.7713 97.1406 58.7713 98.4901C58.7713 99.8324 57.9261 100.713 56.3494 100.713H54.6165ZM66.8324 108.185C68.3523 108.185 69.4034 107.595 70 106.48H70.0852V108H73.3523V100.585C73.3523 98.277 71.2997 96.9489 68.5227 96.9489C65.5895 96.9489 63.9276 98.4261 63.6506 100.415L66.8537 100.528C67.0028 99.8324 67.5781 99.4062 68.4943 99.4062C69.3466 99.4062 69.8864 99.8182 69.8864 100.55V100.585C69.8864 101.253 69.1619 101.395 67.3011 101.558C65.0923 101.743 63.2457 102.56 63.2457 104.974C63.2457 107.134 64.7443 108.185 66.8324 108.185ZM67.9048 105.912C67.1023 105.912 66.5341 105.528 66.5341 104.804C66.5341 104.101 67.0881 103.675 68.0753 103.526C68.7216 103.433 69.517 103.291 69.9077 103.085V104.122C69.9077 105.188 69.0128 105.912 67.9048 105.912ZM77.2088 112.091C79.7088 112.091 80.9517 110.827 81.5554 109.044L85.6676 97.098L82.0099 97.0909L79.9716 104.875H79.858L77.848 97.0909H74.2116L78.0895 108.398L77.9545 108.724C77.6207 109.541 76.8679 109.555 75.8452 109.222L75.0781 111.743C75.6037 111.956 76.3778 112.091 77.2088 112.091ZM86.9993 108H90.4723V101.544C90.4723 100.464 91.1044 99.7756 92.0135 99.7756C92.9155 99.7756 93.5121 100.408 93.5121 101.416V108H96.8501V101.487C96.8501 100.443 97.4254 99.7756 98.3842 99.7756C99.2649 99.7756 99.8899 100.365 99.8899 101.452V108H103.363V100.656C103.363 98.348 101.942 96.9489 99.8828 96.9489C98.2706 96.9489 96.9993 97.794 96.5945 99.0938H96.4808C96.1896 97.7869 95.0178 96.9489 93.505 96.9489C92.0135 96.9489 90.8771 97.7656 90.4226 99.0938H90.3018V97.0909H86.9993V108ZM110.614 108.206C113.477 108.206 115.359 106.821 115.756 104.676L112.567 104.584C112.298 105.308 111.587 105.699 110.678 105.699C109.343 105.699 108.519 104.811 108.519 103.476V103.384H115.792V102.517C115.792 98.9233 113.604 96.9489 110.508 96.9489C107.212 96.9489 105.096 99.2074 105.096 102.588C105.096 106.082 107.184 108.206 110.614 108.206ZM108.519 101.366C108.569 100.28 109.428 99.456 110.579 99.456C111.722 99.456 112.546 100.251 112.56 101.366H108.519ZM121.039 101.778C121.046 100.536 121.77 99.7969 122.871 99.7969C123.972 99.7969 124.625 100.521 124.618 101.729V108H128.091V101.047C128.098 98.5895 126.6 96.9489 124.306 96.9489C122.694 96.9489 121.472 97.7656 120.989 99.0938H120.868V97.0909H117.566V108H121.039V101.778ZM136.399 97.0909H134.432V94.4773H130.959V97.0909H129.517V99.6477H130.959V104.953C130.938 107.162 132.372 108.27 134.822 108.156C135.661 108.114 136.264 107.943 136.598 107.844L136.072 105.337C135.923 105.372 135.575 105.443 135.312 105.443C134.751 105.443 134.432 105.216 134.432 104.57V99.6477H136.399V97.0909ZM151.992 100.422C151.808 98.2628 150.039 96.9489 147.085 96.9489C144.13 96.9489 142.248 98.2344 142.262 100.422C142.248 102.098 143.32 103.178 145.501 103.582L147.404 103.945C148.306 104.122 148.718 104.406 148.732 104.889C148.718 105.436 148.107 105.798 147.219 105.798C146.232 105.798 145.565 105.372 145.415 104.577L141.985 104.662C142.234 106.821 144.087 108.206 147.205 108.206C150.124 108.206 152.248 106.75 152.262 104.506C152.248 102.915 151.197 101.97 149.023 101.551L146.921 101.153C145.998 100.969 145.7 100.642 145.707 100.223C145.7 99.669 146.346 99.3281 147.148 99.3281C148.065 99.3281 148.704 99.8182 148.803 100.507L151.992 100.422ZM159.071 108.206C161.934 108.206 163.816 106.821 164.213 104.676L161.025 104.584C160.755 105.308 160.044 105.699 159.135 105.699C157.8 105.699 156.976 104.811 156.976 103.476V103.384H164.249V102.517C164.249 98.9233 162.061 96.9489 158.965 96.9489C155.669 96.9489 153.553 99.2074 153.553 102.588C153.553 106.082 155.641 108.206 159.071 108.206ZM156.976 101.366C157.026 100.28 157.885 99.456 159.036 99.456C160.179 99.456 161.003 100.251 161.017 101.366H156.976ZM169.496 93.4545H166.023V108H169.496V93.4545ZM176.806 108.206C179.668 108.206 181.55 106.821 181.948 104.676L178.759 104.584C178.489 105.308 177.779 105.699 176.87 105.699C175.534 105.699 174.711 104.811 174.711 103.476V103.384H181.983V102.517C181.983 98.9233 179.796 96.9489 176.699 96.9489C173.404 96.9489 171.287 99.2074 171.287 102.588C171.287 106.082 173.375 108.206 176.806 108.206ZM174.711 101.366C174.76 100.28 175.62 99.456 176.77 99.456C177.914 99.456 178.738 100.251 178.752 101.366H174.711ZM188.849 108.206C191.918 108.206 193.821 106.423 193.913 103.724H190.668C190.54 104.882 189.844 105.514 188.892 105.514C187.67 105.514 186.875 104.484 186.875 102.545C186.875 100.621 187.678 99.5909 188.892 99.5909C189.886 99.5909 190.533 100.266 190.668 101.381H193.913C193.835 98.696 191.875 96.9489 188.842 96.9489C185.412 96.9489 183.338 99.2358 183.338 102.581C183.338 105.912 185.398 108.206 188.849 108.206ZM201.848 97.0909H199.881V94.4773H196.408V97.0909H194.966V99.6477H196.408V104.953C196.387 107.162 197.821 108.27 200.272 108.156C201.11 108.114 201.713 107.943 202.047 107.844L201.522 105.337C201.373 105.372 201.025 105.443 200.762 105.443C200.201 105.443 199.881 105.216 199.881 104.57V99.6477H201.848V97.0909ZM203.62 108H207.093V97.0909H203.62V108ZM205.36 95.8196C206.348 95.8196 207.143 95.0739 207.143 94.1577C207.143 93.2415 206.348 92.5028 205.36 92.5028C204.38 92.5028 203.578 93.2415 203.578 94.1577C203.578 95.0739 204.38 95.8196 205.36 95.8196ZM214.396 108.206C217.827 108.206 219.908 105.94 219.908 102.581C219.908 99.2145 217.827 96.9489 214.396 96.9489C210.966 96.9489 208.885 99.2145 208.885 102.581C208.885 105.94 210.966 108.206 214.396 108.206ZM214.418 105.585C213.132 105.585 212.422 104.364 212.422 102.56C212.422 100.749 213.132 99.5199 214.418 99.5199C215.661 99.5199 216.371 100.749 216.371 102.56C216.371 104.364 215.661 105.585 214.418 105.585ZM225.16 101.778C225.167 100.536 225.891 99.7969 226.992 99.7969C228.093 99.7969 228.746 100.521 228.739 101.729V108H232.212V101.047C232.219 98.5895 230.721 96.9489 228.427 96.9489C226.815 96.9489 225.593 97.7656 225.11 99.0938H224.989V97.0909H221.687V108H225.16V101.778Z" fill="#333333"/>
<path d="M431.598 108H433.793V102.886H436.776C440.149 102.886 441.818 100.848 441.818 98.1634C441.818 95.4858 440.163 93.4545 436.783 93.4545H431.598V108ZM433.793 101.026V95.3366H436.548C438.722 95.3366 439.609 96.5156 439.609 98.1634C439.609 99.8111 438.722 101.026 436.577 101.026H433.793ZM447.298 108.241C449.102 108.241 450.117 107.325 450.522 106.509H450.607V108H452.681V100.756C452.681 97.581 450.181 96.9489 448.448 96.9489C446.474 96.9489 444.656 97.7443 443.945 99.733L445.941 100.188C446.254 99.4134 447.049 98.6676 448.477 98.6676C449.847 98.6676 450.55 99.3849 450.55 100.621V100.67C450.55 101.445 449.755 101.43 447.795 101.658C445.728 101.899 443.612 102.439 443.612 104.918C443.612 107.062 445.224 108.241 447.298 108.241ZM447.759 106.537C446.559 106.537 445.692 105.997 445.692 104.946C445.692 103.81 446.701 103.405 447.93 103.241C448.619 103.149 450.252 102.964 450.558 102.659V104.065C450.558 105.358 449.528 106.537 447.759 106.537ZM456.461 112.091C458.216 112.091 459.324 111.175 459.956 109.456L464.466 97.1122L462.172 97.0909L459.409 105.557H459.295L456.532 97.0909H454.26L458.251 108.142L457.988 108.866C457.449 110.315 456.689 110.436 455.524 110.116L455.012 111.857C455.268 111.97 455.822 112.091 456.461 112.091ZM466.467 108H468.59V101.274C468.59 99.804 469.62 98.7812 470.827 98.7812C472.006 98.7812 472.823 99.5625 472.823 100.749V108H474.94V101.047C474.94 99.733 475.742 98.7812 477.127 98.7812C478.249 98.7812 479.173 99.4062 479.173 100.884V108H481.296V100.685C481.296 98.1918 479.904 96.9489 477.93 96.9489C476.36 96.9489 475.181 97.7017 474.656 98.8665H474.542C474.066 97.6733 473.065 96.9489 471.609 96.9489C470.167 96.9489 469.094 97.6662 468.64 98.8665H468.505V97.0909H466.467V108ZM488.844 108.22C491.223 108.22 492.907 107.048 493.39 105.273L491.38 104.911C490.996 105.94 490.073 106.466 488.865 106.466C487.047 106.466 485.826 105.287 485.769 103.185H493.525V102.432C493.525 98.4901 491.167 96.9489 488.695 96.9489C485.655 96.9489 483.652 99.2642 483.652 102.616C483.652 106.004 485.627 108.22 488.844 108.22ZM485.776 101.594C485.861 100.045 486.983 98.7031 488.709 98.7031C490.357 98.7031 491.436 99.9247 491.444 101.594H485.776ZM498.004 101.523C498.004 99.7827 499.07 98.7884 500.547 98.7884C501.989 98.7884 502.862 99.733 502.862 101.317V108H504.986V101.061C504.986 98.3622 503.501 96.9489 501.271 96.9489C499.631 96.9489 498.558 97.7088 498.054 98.8665H497.919V97.0909H495.881V108H498.004V101.523ZM512.926 97.0909H510.689V94.4773H508.565V97.0909H506.967V98.7955H508.565V105.237C508.558 107.219 510.071 108.178 511.747 108.142C512.422 108.135 512.876 108.007 513.125 107.915L512.741 106.161C512.599 106.189 512.337 106.253 511.996 106.253C511.307 106.253 510.689 106.026 510.689 104.797V98.7955H512.926V97.0909Z" fill="#979797"/>
<line x1="363.991" y1="103.991" x2="248.991" y2="102.951" stroke="#BEBEBE" stroke-width="2" stroke-linecap="round" stroke-dasharray="1 10"/>
<circle cx="20" cy="101" r="20" fill="#989898"/>
<circle cx="400" cy="101" r="20" fill="#F5F5F5"/>
<path d="M22.8276 93.4545V108H19.3191V96.7358H19.2338L15.981 98.7244V95.6847L19.5676 93.4545H22.8276Z" fill="white"/>
<path d="M394.195 108V105.472L399.501 100.827C399.899 100.467 400.237 100.138 400.517 99.8395C400.796 99.5365 401.009 99.2334 401.156 98.9304C401.302 98.6226 401.376 98.2888 401.376 97.929C401.376 97.5265 401.288 97.1832 401.113 96.8991C400.938 96.6103 400.696 96.3878 400.389 96.2315C400.081 96.0753 399.728 95.9972 399.33 95.9972C398.928 95.9972 398.575 96.08 398.272 96.2457C397.969 96.4067 397.732 96.6411 397.562 96.9489C397.396 97.2566 397.313 97.6307 397.313 98.071H393.982C393.982 97.0814 394.205 96.2268 394.65 95.5071C395.095 94.7874 395.72 94.2334 396.525 93.8452C397.335 93.4522 398.275 93.2557 399.345 93.2557C400.448 93.2557 401.407 93.4403 402.221 93.8097C403.035 94.179 403.665 94.6951 404.11 95.358C404.56 96.0161 404.785 96.7808 404.785 97.652C404.785 98.206 404.674 98.7552 404.451 99.2997C404.229 99.8442 403.829 100.446 403.251 101.104C402.678 101.762 401.864 102.55 400.808 103.469L399.068 105.074V105.166H404.963V108H394.195Z" fill="#979797"/>
<path d="M257.029 16.8438C255.535 16.8438 254.176 18.0659 254.176 19.6954V25.2629H259.745V19.6954C259.881 18.0659 258.659 16.8438 257.029 16.8438Z" fill="url(#paint0_linear_123_1579)"/>
<path d="M257.027 0.00488845C225.65 -0.266696 227.009 10.8683 227.009 10.8683V27.7065C227.009 27.7065 227.552 54.1861 257.027 66C286.501 54.0503 287.045 27.7065 287.045 27.7065V10.8683C287.045 10.8683 288.267 -0.130904 257.027 0.00488845ZM270.61 41.0142C270.61 42.6437 269.251 44.0016 267.621 44.0016H246.568C244.938 44.0016 243.58 42.6437 243.58 41.0142V28.2497C243.58 26.6202 244.938 25.2623 246.568 25.2623H248.877V19.6948C248.877 15.2136 252.544 11.4115 257.163 11.4115C261.781 11.4115 265.448 15.0778 265.448 19.6948V25.2623H267.757C269.387 25.2623 270.745 26.6202 270.745 28.2497V41.0142H270.61Z" fill="url(#paint1_linear_123_1579)"/>
<defs>
<linearGradient id="paint0_linear_123_1579" x1="256.966" y1="16.8438" x2="256.966" y2="25.2629" gradientUnits="userSpaceOnUse">
<stop stop-color="#E41522"/>
<stop offset="1" stop-color="#F23430"/>
</linearGradient>
<linearGradient id="paint1_linear_123_1579" x1="257.026" y1="0" x2="257.026" y2="66" gradientUnits="userSpaceOnUse">
<stop stop-color="#E1101F"/>
<stop offset="1" stop-color="#FC4C3A"/>
</linearGradient>
</defs>
</svg>
